<?xml version="1.0" encoding="UTF-8"?>
<svg id="_레이어_1" data-name="레이어 1" xmlns="http://www.w3.org/2000/svg" viewBox="0 0 136.04 15.76">
  <defs>
    <style>
      .cls-1 {
        fill: #fff;
      }

      .cls-1, .cls-2 {
        stroke-width: 0px;
      }

      .cls-2 {
        fill: #293f5f;
      }
    </style>
  </defs>
  <path class="cls-2" d="m10.2.1c.36,0,.64.08.83.23.19.16.28.31.28.47v14.1c0,.17-.09.33-.28.48-.19.15-.46.22-.81.22-.33,0-.58-.08-.77-.22-.19-.15-.28-.31-.28-.48v-6.72H2.15v6.72c0,.17-.09.33-.28.48-.19.15-.46.22-.81.22s-.6-.08-.78-.22c-.18-.15-.27-.31-.27-.48V.82c0-.16.09-.31.27-.47.18-.16.44-.23.78-.23.36,0,.64.08.82.23.18.16.27.31.27.47v5.51h7.01V.8c0-.16.09-.31.27-.47.18-.16.44-.23.76-.23Z"/>
  <path class="cls-2" d="m25.47,11.35c.22.01.41.08.58.21.16.13.28.29.34.49.08.3.06.6-.05.91-.11.31-.3.61-.56.91-.39.44-1.01.87-1.85,1.28s-1.94.62-3.29.62c-2.04,0-3.7-.69-4.97-2.06s-1.9-3.29-1.9-5.75.64-4.47,1.91-5.84C16.96.74,18.61.06,20.62.06c1.22,0,2.27.23,3.13.68.87.46,1.6,1.05,2.2,1.8.17.26.25.54.24.83,0,.29-.15.54-.42.75-.27.2-.55.26-.83.21-.28-.06-.54-.23-.79-.52-.39-.53-.87-.97-1.45-1.31-.57-.34-1.27-.51-2.09-.51-1.46,0-2.59.56-3.41,1.68-.81,1.12-1.22,2.55-1.22,4.28s.44,3.23,1.31,4.29c.87,1.06,2,1.59,3.38,1.59,1.26,0,2.3-.28,3.12-.84s1.37-1.11,1.66-1.64Z"/>
  <path class="cls-2" d="m32.95,9.55L28.14.82c-.1-.22-.05-.41.18-.56.22-.15.49-.22.8-.22.38,0,.67.06.88.19.21.12.39.32.55.58l3.5,6.27,3.42-6.17c.13-.26.31-.47.53-.62.22-.16.53-.23.94-.23.36,0,.64.08.84.23s.24.33.14.53l-4.8,8.75v5.37c0,.16-.09.31-.28.46-.19.15-.45.22-.79.22s-.62-.08-.8-.22c-.18-.15-.27-.3-.27-.46v-5.37Z"/>
  <path class="cls-1" d="m53.46,11.35c.22.01.41.08.58.21.16.13.28.29.34.49.08.3.06.6-.05.91-.11.31-.3.61-.56.91-.39.44-1.01.87-1.85,1.28s-1.94.62-3.29.62c-2.04,0-3.7-.69-4.97-2.06s-1.9-3.29-1.9-5.75.64-4.47,1.91-5.84C44.95.74,46.59.06,48.61.06c1.22,0,2.27.23,3.13.68.87.46,1.6,1.05,2.2,1.8.17.26.25.54.24.83,0,.29-.15.54-.42.75-.27.2-.55.26-.83.21-.28-.06-.54-.23-.79-.52-.39-.53-.87-.97-1.45-1.31-.57-.34-1.27-.51-2.09-.51-1.46,0-2.59.56-3.41,1.68-.81,1.12-1.22,2.55-1.22,4.28s.44,3.23,1.31,4.29c.87,1.06,2,1.59,3.38,1.59,1.26,0,2.3-.28,3.12-.84s1.37-1.11,1.66-1.64Z"/>
  <path class="cls-1" d="m61.54,5c1.59,0,2.9.48,3.94,1.45s1.55,2.28,1.55,3.96c0,1.59-.5,2.87-1.49,3.86s-2.33,1.47-3.99,1.47-3-.5-3.96-1.5c-.96-1-1.45-2.28-1.45-3.83,0-1.69.51-3.02,1.53-3.97,1.02-.96,2.31-1.44,3.88-1.44Zm0,8.91c.98,0,1.77-.31,2.39-.93.62-.62.93-1.47.93-2.57s-.31-1.96-.92-2.6c-.61-.64-1.41-.96-2.4-.96s-1.75.32-2.34.96c-.6.64-.9,1.5-.9,2.6s.3,1.95.9,2.57c.6.62,1.38.93,2.34.93Z"/>
  <path class="cls-1" d="m78.32,4.98c1.12,0,2.02.35,2.7,1.04.68.7,1.02,1.69,1.02,2.98v5.96c0,.16-.09.31-.27.45-.18.14-.44.21-.76.21s-.58-.07-.76-.21c-.18-.14-.27-.29-.27-.45v-6.19c0-.6-.14-1.08-.42-1.44-.28-.36-.69-.54-1.22-.54s-.95.19-1.23.58c-.29.38-.43.86-.43,1.42v6.17c0,.16-.09.31-.27.45-.18.14-.44.21-.78.21s-.58-.07-.75-.21-.26-.29-.26-.45v-6.17c0-.55-.14-1.02-.41-1.41-.27-.39-.68-.59-1.23-.59s-.94.18-1.23.54c-.29.36-.43.84-.43,1.44v6.17c0,.16-.09.31-.28.45-.19.14-.45.21-.77.21s-.58-.07-.76-.21c-.18-.14-.27-.29-.27-.45v-5.9c0-1.37.35-2.39,1.06-3.06.71-.67,1.6-1.01,2.69-1.01.53,0,1.04.1,1.5.3.47.2.86.49,1.17.85.31-.35.7-.63,1.15-.84.46-.21.97-.31,1.54-.31Z"/>
  <path class="cls-1" d="m89.88,5c1.41,0,2.52.45,3.35,1.34s1.24,2.11,1.24,3.66-.48,2.91-1.45,4.04-2.3,1.7-4,1.7c-1.24,0-2.3-.45-3.2-1.36s-1.35-2.21-1.35-3.92V.72c0-.16.09-.31.27-.45.18-.14.44-.21.78-.21.36,0,.64.07.82.21.18.14.27.29.27.45v5.7c.4-.42.89-.76,1.46-1.03.57-.27,1.17-.4,1.81-.4Zm2.42,4.86c0-.87-.2-1.59-.61-2.16-.4-.57-1.01-.85-1.82-.85-.99,0-1.78.39-2.38,1.18-.6.79-.9,1.71-.9,2.76,0,.89.22,1.62.67,2.22s1.08.89,1.88.89c1,0,1.78-.37,2.32-1.12s.82-1.72.82-2.92Z"/>
  <path class="cls-1" d="m97.83,2.66c-.36,0-.68-.13-.94-.39-.26-.26-.39-.57-.39-.94s.13-.66.39-.93c.26-.27.57-.4.94-.4s.68.13.94.4c.26.27.39.58.39.93s-.13.68-.39.94c-.26.26-.57.39-.94.39Zm-.02,2.34c.35,0,.62.08.8.23s.27.31.27.47v9.22c0,.17-.09.33-.28.47s-.45.21-.79.21-.62-.08-.8-.22-.27-.3-.27-.46V5.7c0-.16.09-.31.28-.47s.45-.23.79-.23Z"/>
  <path class="cls-1" d="m107.83,4.96c1.2,0,2.14.38,2.82,1.13s1.03,1.84,1.03,3.26v5.57c0,.16-.09.31-.27.46s-.46.22-.82.22c-.34,0-.6-.08-.78-.22s-.27-.3-.27-.46v-5.7c0-.73-.17-1.31-.52-1.75-.34-.44-.86-.65-1.53-.65-.95,0-1.73.32-2.32.96-.6.64-.9,1.57-.9,2.79v4.36c0,.17-.1.33-.29.47s-.46.21-.8.21-.6-.07-.79-.21-.28-.3-.28-.47V5.76c0-.16.09-.31.28-.47s.45-.23.79-.23.61.08.8.23.29.31.29.47v.68c.44-.46.95-.82,1.52-1.08.57-.27,1.26-.4,2.05-.4Z"/>
  <path class="cls-1" d="m123.32,13.07c.12.05.21.15.29.3s.12.3.12.44c-.08.47-.47.91-1.18,1.32s-1.67.62-2.88.62c-1.82,0-3.24-.52-4.24-1.55s-1.5-2.29-1.5-3.78c0-1.6.55-2.9,1.64-3.91s2.44-1.5,4.04-1.5c1.25,0,2.32.32,3.22.96.9.64,1.35,1.43,1.35,2.38,0,1-.42,1.81-1.25,2.42s-1.93.92-3.3.92c-.55,0-1.13-.08-1.76-.25s-1.18-.46-1.68-.86c-.01,1.07.31,1.93.96,2.59s1.62.99,2.91.99c.56,0,1.16-.1,1.8-.29s1.13-.46,1.46-.78Zm-3.71-6.21c-.59,0-1.17.15-1.74.45-.57.3-1.02.81-1.35,1.54.43.39.91.69,1.45.89s1.09.3,1.66.3c.65,0,1.21-.14,1.67-.43s.69-.68.69-1.19c0-.56-.24-.96-.73-1.2-.49-.24-1.04-.36-1.65-.36Z"/>
  <path class="cls-1" d="m134.92.06c.34,0,.6.07.79.21.19.14.28.29.28.45l.04,9.18c0,1.65-.5,3.04-1.5,4.16s-2.32,1.68-3.96,1.68c-1.34,0-2.44-.47-3.3-1.42s-1.29-2.18-1.29-3.72.5-2.85,1.51-3.95,2.28-1.65,3.8-1.65c.55,0,1.04.08,1.46.25.43.17.79.38,1.09.64V.72c0-.16.09-.31.27-.45.18-.14.45-.21.8-.21Zm-1.05,9.98c0-.98-.22-1.75-.66-2.32-.44-.57-1.04-.86-1.8-.86-1,0-1.8.4-2.4,1.19-.6.79-.9,1.73-.9,2.81,0,.87.23,1.6.7,2.18s1.08.87,1.84.87c1.05,0,1.86-.39,2.4-1.17s.82-1.68.82-2.7Z"/>
</svg>